<svg width="14" height="14" viewBox="0 0 14 14" fill="none" xmlns="http://www.w3.org/2000/svg">
<path d="M7 12.25C5.54167 12.25 4.30208 11.7396 3.28125 10.7188C2.26042 9.69792 1.75 8.45833 1.75 7C1.75 5.54167 2.26042 4.30208 3.28125 3.28125C4.30208 2.26042 5.54167 1.75 7 1.75C7.13611 1.75 7.26979 1.75486 7.40104 1.76458C7.53229 1.77431 7.66111 1.78889 7.7875 1.80833C7.38889 2.09028 7.07049 2.45729 6.83229 2.90938C6.5941 3.36146 6.475 3.85 6.475 4.375C6.475 5.25 6.78125 5.99375 7.39375 6.60625C8.00625 7.21875 8.75 7.525 9.625 7.525C10.1597 7.525 10.6507 7.4059 11.0979 7.16771C11.5451 6.92951 11.9097 6.61111 12.1917 6.2125C12.2111 6.33889 12.2257 6.46771 12.2354 6.59896C12.2451 6.73021 12.25 6.86389 12.25 7C12.25 8.45833 11.7396 9.69792 10.7188 10.7188C9.69792 11.7396 8.45833 12.25 7 12.25Z" fill="#3A3A3A"/>
</svg>
