<svg width="14" height="14" viewBox="0 0 14 14" fill="none" xmlns="http://www.w3.org/2000/svg">
<g clip-path="url(#clip0_74_238)">
<path d="M6.99967 9.91671C6.19273 9.91671 5.50488 9.63233 4.93613 9.06358C4.36738 8.49483 4.08301 7.80699 4.08301 7.00004C4.08301 6.1931 4.36738 5.50525 4.93613 4.9365C5.50488 4.36775 6.19273 4.08337 6.99967 4.08337C7.80662 4.08337 8.49447 4.36775 9.06322 4.9365C9.63197 5.50525 9.91634 6.1931 9.91634 7.00004C9.91634 7.80699 9.63197 8.49483 9.06322 9.06358C8.49447 9.63233 7.80662 9.91671 6.99967 9.91671ZM2.91634 7.58337H0.583008V6.41671H2.91634V7.58337ZM13.4163 7.58337H11.083V6.41671H13.4163V7.58337ZM6.41634 2.91671V0.583374H7.58301V2.91671H6.41634ZM6.41634 13.4167V11.0834H7.58301V13.4167H6.41634ZM3.73301 4.52087L2.26009 3.10629L3.09134 2.24587L4.49134 3.70421L3.73301 4.52087ZM10.908 11.7542L9.49343 10.2813L10.2663 9.47921L11.7393 10.8938L10.908 11.7542ZM9.47884 3.73337L10.8934 2.26046L11.7538 3.09171L10.2955 4.49171L9.47884 3.73337ZM2.24551 10.9084L3.71842 9.49379L4.52051 10.2667L3.10592 11.7396L2.24551 10.9084Z" fill="#4299F8"/>
</g>
<defs>
<clipPath id="clip0_74_238">
<rect width="14" height="14" fill="white"/>
</clipPath>
</defs>
</svg>
